<svg xmlns="http://www.w3.org/2000/svg" width="38" height="23" viewBox="0 0 38 23"><g fill="none" fill-rule="evenodd"><path fill="#FFF" d="M28.131 11.461c-.729 1.093-1.282 1.872-1.282 1.872-.37.593-.519.89 0 1.557.371.52 1.595 1.558 2.41 2.522 1.504 1.691 2.637 3.118 2.953 4.101C32.5 22.5 32 23 31 23h-3.5c-1.335 0-1.726-1.065-4.1-3.438-2.076-2.002-2.966-2.262-3.485-2.262-.704 0-.915.2-.915 1.2v3.139C19 22.5 18.725 23 16.5 23c-3.708 0-7.783-2.251-10.675-6.404C1.487 10.515.3 5.916.3 4.99.3 4.47.5 4 1.5 4H5c.895 0 1.231.391 1.566 1.36 1.712 4.987 4.598 9.345 5.785 9.345.445 0 .649-.205.649-1.335V8.216c-.13-2.373-1.39-2.568-1.39-3.412 0-.391.334-.804.89-.804H18c.742 0 .988.397.988 1.287v6.933c0 .742.334 1.002.556 1.002.445 0 .816-.26 1.632-1.076.99-1.106 1.866-2.447 2.564-3.668l4.391 2.983z"/><path fill="#4A76A8" d="M27.556 12.313l-4.333-2.965c.182-.293.354-.585.517-.87l4.391 2.983c-.209.313-.403.601-.575.852z" opacity=".12"/><g fill-rule="nonzero" transform="translate(21)"><path fill="#FFF" d="M12.128 10.126a1.477 1.477 0 0 1 .344 2.076 1.504 1.504 0 0 1-2.09.364L.872 5.874a1.477 1.477 0 0 1-.344-2.076 1.504 1.504 0 0 1 2.09-.364l9.51 6.692z"/><path fill="#FA7A5A" d="M2.49 3.35C6.26-.576 11.356-.759 13.988 1.514c3.95 3.41 3.075 8.527 2.15 12.199-.141.563-1.072.45-.99 0 .276-1.498.22-3.16-.292-3.672-.667-.667-1.574-.523-2.533.265L2.49 3.35z"/><rect width="3" height="3" x="14" y="13" fill="#FFF" rx="1.5"/></g></g></svg>
